<?xml version="1.0" encoding="UTF-8"?>
<svg id="Layer_2" data-name="Layer 2" xmlns="http://www.w3.org/2000/svg" viewBox="0 0 203.84 242.15">
  <defs>
    <style>
      .cls-1 {
        fill: #ffffff;
      }
    </style>
  </defs>
  <g id="Layer_1-2" data-name="Layer 1">
    <path class="cls-1" d="M53.44,12.27c7.64,1.34,13.02,5.15,17.62,10.93,10.88,13.68,23.85,24.85,41.62,28.13,12.67,2.34,25.28,2.2,35.41-7.96,5.89-5.9,7.62-13.4,8.61-21.26,1.59-12.64,9.47-20.75,21.29-21.99,10.45-1.1,20.59,5.35,24.21,15.39,4.15,11.52.23,22.59-9.78,29.67-7.84,5.55-15.72,11.23-22.67,17.82-19.29,18.29-24.63,40-15.21,65.35,9.92,26.69,24.24,50.82,41.04,73.6,8.28,11.22,7.21,26.71-2.77,34.58-7.69,6.06-16.26,7.32-25.26,3.27-8.94-4.02-13.36-11.49-13.58-20.97-.31-13.38-1.47-26.54-6.27-39.13-9.53-25-31.92-34.84-56.94-24.98-19.77,7.79-33.96,22.3-46.24,38.99-8.48,11.53-21.52,15.09-32.68,8.66C3.16,197.38-.59,189.39.08,179.84c.7-9.96,5.82-17.17,15.58-21.14,17.15-6.97,34.39-13.84,50.98-22.01,8.49-4.18,16-10.65,23.32-16.84,16.36-13.81,9.3-38.76-3.25-48.07-11.22-8.32-24.03-10.71-37.45-11.56-10.61-.67-18.58-7.15-21.34-17.18-4.62-16.83,7.19-31.35,25.53-30.78Z"/>
  </g>
</svg>
