<?xml version="1.0" encoding="UTF-8"?>
<!DOCTYPE svg
PUBLIC "-//W3C//DTD SVG 1.1//EN"
     "http://www.w3.org/Graphics/SVG/1.1/DTD/svg11.dtd">
     <!--Created with SF Symbol Generator (v1.0.0)-->

<svg version="1.1" xmlns="http://www.w3.org/2000/svg" xmlns:xlink="http://www.w3.org/1999/xlink" width="3300" height="2200">
<!--glyph: "entanglement1.medium", point size: 100.0-->
<style>.SFSymbolsPreviewWireframe {fill:none;opacity:1.0;stroke:black;stroke-width:0.5}
</style>
<g id="Notes">
<rect height="2200" id="artboard" style="fill:white;opacity:1" width="3300" x="0" y="0"/>
<line style="fill:none;stroke:black;opacity:1;stroke-width:0.5;" x1="263" x2="3036" y1="292" y2="292"/>
<text style="stroke:none;fill:black;font-family:sans-serif;font-size:13;font-weight:bold;" transform="matrix(1 0 0 1 263 322)">Weight/Scale Variations</text>
<text style="stroke:none;fill:black;font-family:sans-serif;font-size:13;text-anchor:middle;" transform="matrix(1 0 0 1 559.711 322)">Ultralight</text>
<text style="stroke:none;fill:black;font-family:sans-serif;font-size:13;text-anchor:middle;" transform="matrix(1 0 0 1 856.422 322)">Thin</text>
<text style="stroke:none;fill:black;font-family:sans-serif;font-size:13;text-anchor:middle;" transform="matrix(1 0 0 1 1153.13 322)">Light</text>
<text style="stroke:none;fill:black;font-family:sans-serif;font-size:13;text-anchor:middle;" transform="matrix(1 0 0 1 1449.84 322)">Regular</text>
<text style="stroke:none;fill:black;font-family:sans-serif;font-size:13;text-anchor:middle;" transform="matrix(1 0 0 1 1746.56 322)">Medium</text>
<text style="stroke:none;fill:black;font-family:sans-serif;font-size:13;text-anchor:middle;" transform="matrix(1 0 0 1 2043.27 322)">Semibold</text>
<text style="stroke:none;fill:black;font-family:sans-serif;font-size:13;text-anchor:middle;" transform="matrix(1 0 0 1 2339.98 322)">Bold</text>
<text style="stroke:none;fill:black;font-family:sans-serif;font-size:13;text-anchor:middle;" transform="matrix(1 0 0 1 2636.69 322)">Heavy</text>
<text style="stroke:none;fill:black;font-family:sans-serif;font-size:13;text-anchor:middle;" transform="matrix(1 0 0 1 2933.4 322)">Black</text>
<line style="fill:none;stroke:black;opacity:1;stroke-width:0.5;" x1="263" x2="3036" y1="1903" y2="1903"/>
<text style="stroke:none;fill:black;font-family:sans-serif;font-size:13;font-weight:bold;" transform="matrix(1 0 0 1 263 1953)">Design Variations</text>
<text style="stroke:none;fill:black;font-family:sans-serif;font-size:13;" transform="matrix(1 0 0 1 263 1971)">Symbols are supported in up to nine weights and three scales.</text>
<text style="stroke:none;fill:black;font-family:sans-serif;font-size:13;" transform="matrix(1 0 0 1 263 1989)">For optimal layout with text and other symbols, vertically align</text>
<text style="stroke:none;fill:black;font-family:sans-serif;font-size:13;" transform="matrix(1 0 0 1 263 2007)">symbols with the adjacent text.</text>
<line style="fill:none;stroke:#00AEEF;stroke-width:0.5;opacity:1.0;" x1="776" x2="776" y1="1919" y2="1933"/>
<text style="stroke:none;fill:black;font-family:sans-serif;font-size:13;font-weight:bold;" transform="matrix(1 0 0 1 776 1953)">Margins</text>
<text style="stroke:none;fill:black;font-family:sans-serif;font-size:13;" transform="matrix(1 0 0 1 776 1971)">Leading and trailing margins on the left and right side of each symbol</text>
<text style="stroke:none;fill:black;font-family:sans-serif;font-size:13;" transform="matrix(1 0 0 1 776 1989)">can be adjusted by modifying the x-location of the margin guidelines.</text>
<text style="stroke:none;fill:black;font-family:sans-serif;font-size:13;" transform="matrix(1 0 0 1 776 2007)">Modifications are automatically applied proportionally to all</text>
<text style="stroke:none;fill:black;font-family:sans-serif;font-size:13;" transform="matrix(1 0 0 1 776 2025)">scales and weights.</text>
<text style="stroke:none;fill:black;font-family:sans-serif;font-size:13;font-weight:bold;" transform="matrix(1 0 0 1 1289 1953)">Exporting</text>
<text style="stroke:none;fill:black;font-family:sans-serif;font-size:13;" transform="matrix(1 0 0 1 1289 1971)">Symbols should be outlined when exporting to ensure the</text>
<text style="stroke:none;fill:black;font-family:sans-serif;font-size:13;" transform="matrix(1 0 0 1 1289 1989)">design is preserved when submitting to Xcode.</text>
<text id="template-version" style="stroke:none;fill:black;font-family:sans-serif;font-size:13;text-anchor:end;" transform="matrix(1 0 0 1 3036 1933)">Template v.5.0</text>
<text style="stroke:none;fill:black;font-family:sans-serif;font-size:13;text-anchor:end;" transform="matrix(1 0 0 1 3036 1951)">Requires Xcode 15 or greater</text>
<text id="descriptive-name" style="stroke:none;fill:black;font-family:sans-serif;font-size:13;text-anchor:end;" transform="matrix(1 0 0 1 3036 1969)">Generated from entanglement1</text>
<text style="stroke:none;fill:black;font-family:sans-serif;font-size:13;text-anchor:end;" transform="matrix(1 0 0 1 3036 1987)">Typeset at 100.0 points</text>
<text style="stroke:none;fill:black;font-family:sans-serif;font-size:13;" transform="matrix(1 0 0 1 263 726)">Small</text>
<text style="stroke:none;fill:black;font-family:sans-serif;font-size:13;" transform="matrix(1 0 0 1 263 1156)">Medium</text>
<text style="stroke:none;fill:black;font-family:sans-serif;font-size:13;" transform="matrix(1 0 0 1 263 1586)">Large</text>
</g>
<g id="Guides">
<g id="H-reference" style="fill:#27AAE1;stroke:none;" transform="matrix(1 0 0 1 339 696)">
 <path d="M0.993654 0L3.63775 0L29.3281-67.1323L30.0303-67.1323L30.0303-70.459L28.1226-70.459ZM11.6885-24.4799L46.9815-24.4799L46.2315-26.7285L12.4385-26.7285ZM55.1196 0L57.7637 0L30.6382-70.459L29.4326-70.459L29.4326-67.1323Z"/>
</g>
<line id="Baseline-S" style="fill:none;stroke:#27AAE1;opacity:1;stroke-width:0.5;" x1="263" x2="3036" y1="696" y2="696"/>
<line id="Capline-S" style="fill:none;stroke:#27AAE1;opacity:1;stroke-width:0.5;" x1="263" x2="3036" y1="625.541" y2="625.541"/>
<g id="H-reference" style="fill:#27AAE1;stroke:none;" transform="matrix(1 0 0 1 339 1126)">
 <path d="M0.993654 0L3.63775 0L29.3281-67.1323L30.0303-67.1323L30.0303-70.459L28.1226-70.459ZM11.6885-24.4799L46.9815-24.4799L46.2315-26.7285L12.4385-26.7285ZM55.1196 0L57.7637 0L30.6382-70.459L29.4326-70.459L29.4326-67.1323Z"/>
</g>
<line id="Baseline-M" style="fill:none;stroke:#27AAE1;opacity:1;stroke-width:0.5;" x1="263" x2="3036" y1="1126" y2="1126"/>
<line id="Capline-M" style="fill:none;stroke:#27AAE1;opacity:1;stroke-width:0.5;" x1="263" x2="3036" y1="1055.54" y2="1055.54"/>
<g id="H-reference" style="fill:#27AAE1;stroke:none;" transform="matrix(1 0 0 1 339 1556)">
 <path d="M0.993654 0L3.63775 0L29.3281-67.1323L30.0303-67.1323L30.0303-70.459L28.1226-70.459ZM11.6885-24.4799L46.9815-24.4799L46.2315-26.7285L12.4385-26.7285ZM55.1196 0L57.7637 0L30.6382-70.459L29.4326-70.459L29.4326-67.1323Z"/>
</g>
<line id="Baseline-L" style="fill:none;stroke:#27AAE1;opacity:1;stroke-width:0.5;" x1="263" x2="3036" y1="1556" y2="1556"/>
<line id="Capline-L" style="fill:none;stroke:#27AAE1;opacity:1;stroke-width:0.5;" x1="263" x2="3036" y1="1485.54" y2="1485.54"/>
<line id="left-margin-Ultralight-S" style="fill:none;stroke:#00AEEF;stroke-width:0.5;opacity:1.0;" x1="520.9885549540119" x2="520.9885549540119" y1="600.785" y2="720.121"/>
<line id="right-margin-Ultralight-S" style="fill:none;stroke:#00AEEF;stroke-width:0.5;opacity:1.0;" x1="598.4334450459882" x2="598.4334450459882" y1="600.785" y2="720.121"/>
<line id="left-margin-Regular-S" style="fill:none;stroke:#00AEEF;stroke-width:0.5;opacity:1.0;" x1="1411.117554954012" x2="1411.117554954012" y1="600.785" y2="720.121"/>
<line id="right-margin-Regular-S" style="fill:none;stroke:#00AEEF;stroke-width:0.5;opacity:1.0;" x1="1488.562445045988" x2="1488.562445045988" y1="600.785" y2="720.121"/>
<line id="left-margin-Black-S" style="fill:none;stroke:#00AEEF;stroke-width:0.5;opacity:1.0;" x1="2894.677554954012" x2="2894.677554954012" y1="600.785" y2="720.121"/>
<line id="right-margin-Black-S" style="fill:none;stroke:#00AEEF;stroke-width:0.5;opacity:1.0;" x1="2972.122445045988" x2="2972.122445045988" y1="600.785" y2="720.121"/>
</g>
<g id="Symbols">
<g id="Ultralight-S" transform="matrix(1 0 0 1 520.9885549540119 614.7705)">
<svg width="78" height="92" viewBox="0 0 78 92" fill="none" xmlns="http://www.w3.org/2000/svg">
<g id="entanglement 1" clip-path="url(#clip0_1_10)">
<path id="Vector" d="M20.3035 4.66174C23.2061 5.17085 25.2502 6.61838 26.9978 8.81438C31.1315 14.0118 36.0592 18.2556 42.8105 19.5018C47.6242 20.3908 52.4151 20.3376 56.2638 16.4776C58.5016 14.236 59.1589 11.3865 59.535 8.40025C60.1391 3.59794 63.133 0.516708 67.6237 0.0455946C71.594 -0.372328 75.4465 2.07822 76.8218 5.89271C78.3985 10.2695 76.9092 14.4753 73.1061 17.1652C70.1275 19.2738 67.1336 21.4318 64.4931 23.9356C57.1643 30.8845 55.1354 39.1328 58.7144 48.764C62.4833 58.9043 67.9239 68.072 74.3067 76.7268C77.4525 80.9896 77.046 86.8748 73.2543 89.8648C70.3326 92.1672 67.0766 92.6459 63.6573 91.1072C60.2607 89.5799 58.5814 86.7418 58.4978 83.14C58.38 78.0566 57.9393 73.0567 56.1157 68.2734C52.4949 58.7751 43.9883 55.0366 34.4824 58.7827C26.9712 61.7424 21.58 67.2552 16.9145 73.5962C13.6927 77.9768 8.7384 79.3293 4.49839 76.8864C1.2006 74.9905 -0.224141 71.9549 0.0304121 68.3266C0.296363 64.5425 2.2416 61.8032 5.94972 60.2949C12.4655 57.6468 19.0155 55.0366 25.3185 51.9326C28.5441 50.3445 31.3974 47.8864 34.1785 45.5346C40.3942 40.2878 37.7118 30.8085 32.9437 27.2714C28.6809 24.1103 23.814 23.2023 18.7154 22.8794C14.6843 22.6248 11.6563 20.1629 10.6077 16.3522C8.85238 9.95796 13.3394 4.44138 20.3073 4.65794L20.3035 4.66174Z" fill="black"/>
</g>
<defs>
<clipPath id="clip0_1_10">
<rect width="77.4449" height="92" fill="white"/>
</clipPath>
</defs>
</svg>

</g>
<g id="Regular-S" transform="matrix(1 0 0 1 1411.117554954012 614.7705)">
<svg width="78" height="92" viewBox="0 0 78 92" fill="none" xmlns="http://www.w3.org/2000/svg">
<g id="entanglement 1" clip-path="url(#clip0_1_10)">
<path id="Vector" d="M20.3035 4.66174C23.2061 5.17085 25.2502 6.61838 26.9978 8.81438C31.1315 14.0118 36.0592 18.2556 42.8105 19.5018C47.6242 20.3908 52.4151 20.3376 56.2638 16.4776C58.5016 14.236 59.1589 11.3865 59.535 8.40025C60.1391 3.59794 63.133 0.516708 67.6237 0.0455946C71.594 -0.372328 75.4465 2.07822 76.8218 5.89271C78.3985 10.2695 76.9092 14.4753 73.1061 17.1652C70.1275 19.2738 67.1336 21.4318 64.4931 23.9356C57.1643 30.8845 55.1354 39.1328 58.7144 48.764C62.4833 58.9043 67.9239 68.072 74.3067 76.7268C77.4525 80.9896 77.046 86.8748 73.2543 89.8648C70.3326 92.1672 67.0766 92.6459 63.6573 91.1072C60.2607 89.5799 58.5814 86.7418 58.4978 83.14C58.38 78.0566 57.9393 73.0567 56.1157 68.2734C52.4949 58.7751 43.9883 55.0366 34.4824 58.7827C26.9712 61.7424 21.58 67.2552 16.9145 73.5962C13.6927 77.9768 8.7384 79.3293 4.49839 76.8864C1.2006 74.9905 -0.224141 71.9549 0.0304121 68.3266C0.296363 64.5425 2.2416 61.8032 5.94972 60.2949C12.4655 57.6468 19.0155 55.0366 25.3185 51.9326C28.5441 50.3445 31.3974 47.8864 34.1785 45.5346C40.3942 40.2878 37.7118 30.8085 32.9437 27.2714C28.6809 24.1103 23.814 23.2023 18.7154 22.8794C14.6843 22.6248 11.6563 20.1629 10.6077 16.3522C8.85238 9.95796 13.3394 4.44138 20.3073 4.65794L20.3035 4.66174Z" fill="black"/>
</g>
<defs>
<clipPath id="clip0_1_10">
<rect width="77.4449" height="92" fill="white"/>
</clipPath>
</defs>
</svg>

</g>
<g id="Black-S" transform="matrix(1 0 0 1 2894.677554954012 614.7705)">
<svg width="78" height="92" viewBox="0 0 78 92" fill="none" xmlns="http://www.w3.org/2000/svg">
<g id="entanglement 1" clip-path="url(#clip0_1_10)">
<path id="Vector" d="M20.3035 4.66174C23.2061 5.17085 25.2502 6.61838 26.9978 8.81438C31.1315 14.0118 36.0592 18.2556 42.8105 19.5018C47.6242 20.3908 52.4151 20.3376 56.2638 16.4776C58.5016 14.236 59.1589 11.3865 59.535 8.40025C60.1391 3.59794 63.133 0.516708 67.6237 0.0455946C71.594 -0.372328 75.4465 2.07822 76.8218 5.89271C78.3985 10.2695 76.9092 14.4753 73.1061 17.1652C70.1275 19.2738 67.1336 21.4318 64.4931 23.9356C57.1643 30.8845 55.1354 39.1328 58.7144 48.764C62.4833 58.9043 67.9239 68.072 74.3067 76.7268C77.4525 80.9896 77.046 86.8748 73.2543 89.8648C70.3326 92.1672 67.0766 92.6459 63.6573 91.1072C60.2607 89.5799 58.5814 86.7418 58.4978 83.14C58.38 78.0566 57.9393 73.0567 56.1157 68.2734C52.4949 58.7751 43.9883 55.0366 34.4824 58.7827C26.9712 61.7424 21.58 67.2552 16.9145 73.5962C13.6927 77.9768 8.7384 79.3293 4.49839 76.8864C1.2006 74.9905 -0.224141 71.9549 0.0304121 68.3266C0.296363 64.5425 2.2416 61.8032 5.94972 60.2949C12.4655 57.6468 19.0155 55.0366 25.3185 51.9326C28.5441 50.3445 31.3974 47.8864 34.1785 45.5346C40.3942 40.2878 37.7118 30.8085 32.9437 27.2714C28.6809 24.1103 23.814 23.2023 18.7154 22.8794C14.6843 22.6248 11.6563 20.1629 10.6077 16.3522C8.85238 9.95796 13.3394 4.44138 20.3073 4.65794L20.3035 4.66174Z" fill="black"/>
</g>
<defs>
<clipPath id="clip0_1_10">
<rect width="77.4449" height="92" fill="white"/>
</clipPath>
</defs>
</svg>

</g>
</g>
</svg>